<svg xmlns="http://www.w3.org/2000/svg" width="1200" height="700" viewBox="0 0 1200 700">
  <defs>
    <linearGradient id="bg" x1="0" y1="0" x2="1" y2="1">
      <stop offset="0%" stop-color="#e7f2ff"/>
      <stop offset="100%" stop-color="#d9e9ff"/>
    </linearGradient>
    <linearGradient id="accent" x1="0" y1="0" x2="1" y2="0">
      <stop offset="0%" stop-color="#1553a6"/>
      <stop offset="100%" stop-color="#1d70d4"/>
    </linearGradient>
  </defs>
  <rect width="1200" height="700" fill="url(#bg)"/>
  <circle cx="1020" cy="120" r="130" fill="#c4dcff" opacity="0.7"/>
  <circle cx="220" cy="560" r="170" fill="#bdd7ff" opacity="0.65"/>
  <rect x="110" y="130" width="980" height="440" rx="28" fill="#ffffff" opacity="0.92"/>

  <rect x="160" y="180" width="130" height="34" rx="8" fill="#e8f1ff"/>
  <text x="178" y="203" font-family="'Space Grotesk', Arial, sans-serif" font-size="17" fill="#1553a6">T-SQL</text>
  <rect x="305" y="180" width="180" height="34" rx="8" fill="#e8f1ff"/>
  <text x="326" y="203" font-family="'Space Grotesk', Arial, sans-serif" font-size="17" fill="#1553a6">Dayforce</text>

  <rect x="160" y="248" width="420" height="10" rx="5" fill="#d7e8ff"/>
  <rect x="160" y="278" width="500" height="10" rx="5" fill="#d7e8ff"/>
  <rect x="160" y="308" width="360" height="10" rx="5" fill="#d7e8ff"/>
  <rect x="160" y="355" width="320" height="18" rx="9" fill="url(#accent)"/>

  <text x="160" y="425" font-family="'Space Grotesk', Arial, sans-serif" font-size="40" fill="#1553a6">Beginner's Guide to T-SQL</text>
  <text x="160" y="470" font-family="'Space Grotesk', Arial, sans-serif" font-size="20" fill="#3b5f8d">Practical Dayforce expressions for validations and reporting.</text>

  <rect x="760" y="225" width="280" height="240" rx="18" fill="#f5f9ff"/>
  <text x="790" y="275" font-family="'Courier New', monospace" font-size="18" fill="#1553a6">CASE WHEN ...</text>
  <text x="790" y="305" font-family="'Courier New', monospace" font-size="18" fill="#1553a6">THEN 'Error'</text>
  <text x="790" y="335" font-family="'Courier New', monospace" font-size="18" fill="#1553a6">ELSE '' END</text>
  <text x="790" y="380" font-family="'Courier New', monospace" font-size="18" fill="#1553a6">COALESCE(...)</text>
  <text x="790" y="410" font-family="'Courier New', monospace" font-size="18" fill="#1553a6">RTRIM(...)</text>
</svg>
